<?xml version="1.0" standalone="no"?>
<!DOCTYPE svg PUBLIC "-//W3C//DTD SVG 20010904//EN"
 "http://www.w3.org/TR/2001/REC-SVG-20010904/DTD/svg10.dtd">
<svg version="1.0" xmlns="http://www.w3.org/2000/svg"
 width="303.000000pt" height="303.000000pt" viewBox="0 0 303.000000 303.000000"
 preserveAspectRatio="xMidYMid meet">
<metadata>
Created by potrace 1.11, written by Peter Selinger 2001-2013
</metadata>
<g transform="translate(0.000000,303.000000) scale(0.100000,-0.100000)"
fill="#000000" stroke="none">
<path d="M1292 2882 c-2 -7 4 -23 15 -35 27 -31 26 -170 -2 -191 -16 -11 -19
-30 -20 -132 -1 -65 -3 -122 -4 -126 0 -3 -12 -5 -26 -3 -28 3 -34 -3 -40 -37
-9 -47 -25 -51 -182 -53 -137 -1 -151 -3 -189 -25 -22 -13 -51 -39 -63 -58
-19 -29 -47 -130 -66 -242 -8 -47 -75 -389 -82 -418 -4 -19 -11 -22 -33 -18
-16 2 -37 -2 -47 -9 -10 -6 -30 -15 -46 -19 -19 -4 -27 -13 -28 -29 -3 -65 11
-100 36 -91 8 3 20 -4 27 -15 9 -15 23 -21 50 -21 27 0 38 -4 39 -15 1 -20 1
-201 0 -220 -1 -8 -26 -33 -57 -57 l-56 -42 48 -43 c27 -24 52 -43 55 -43 3 0
11 -26 18 -57 39 -176 64 -269 75 -278 8 -6 136 -10 339 -10 180 1 328 -2 328
-5 1 -3 2 -80 3 -172 1 -99 6 -171 13 -180 5 -7 13 -24 17 -38 3 -14 14 -36
25 -49 18 -23 24 -25 142 -26 159 -1 171 3 201 68 20 46 24 71 28 228 l5 175
300 -1 c165 0 308 1 317 3 9 2 25 25 36 50 24 56 82 249 82 272 0 8 20 33 44
55 50 44 49 55 -10 107 l-34 30 0 124 0 124 40 0 c28 0 42 5 49 19 7 13 20 18
43 16 47 -2 58 10 58 66 0 32 -4 50 -12 51 -7 0 -25 2 -39 3 -31 2 -51 13 -45
24 3 4 -12 29 -32 57 -21 27 -127 168 -237 314 -109 146 -202 267 -205 270 -3
3 -23 30 -45 60 -47 65 -54 72 -79 66 -18 -5 -70 40 -61 53 9 16 -16 34 -51
36 l-39 1 0 242 c-1 132 -4 244 -8 249 -4 4 -139 7 -299 8 -230 0 -292 -3
-296 -13z"/>
</g>
</svg>
